<?xml version="1.0" encoding="utf-8"?>
<!-- Generator: Adobe Illustrator 18.1.1, SVG Export Plug-In . SVG Version: 6.00 Build 0)  -->
<svg version="1.1" id="Livello_1" xmlns="http://www.w3.org/2000/svg" xmlns:xlink="http://www.w3.org/1999/xlink" x="0px" y="0px"
	 viewBox="0 0 220.8 219.2" enable-background="new 0 0 220.8 219.2" xml:space="preserve">
<symbol  id="New_Symbol" viewBox="-106 -104 212 208.1">
	<path fill="#E51336" d="M0.5,38.4c2.2,0,5.4-1.5,8.8-1.5c1.7,0,3.2,0.2,4.7,0.9c5.3,2.4,10.9,2.6,16.6,2.7
		c11.1,0.1,21.6-2.6,32.1-5.6s18.8-9.3,25.7-17.8C96,7.7,101.2-2.7,104-14.4c2.3-9.7,2.5-19.6,1.1-29.5c-1-6.9-3.3-13.6-5.9-20.1
		c-3.6-9-8.8-16.9-16.2-23.1c-5.5-4.6-11.7-7.9-18.4-10.2c-4.2-1.5-8.4-2.7-12.7-3.8c-3.7-1-7.4-1.3-11.1-1.8
		c-10.4-1.4-20.9-1.6-31.3-0.3c-7.2,0.9-14.4,2.4-21.5,4c-6.3,1.4-12.5,3-18.2,6C-37.7-89.3-45-85-51.6-79.5
		c-8.1,6.8-14,15.1-18.2,24.8c-2.4,5.4-4.4,10.9-5.4,16.7c-1.7,10.6-0.9,20.9,2.7,30.9c3.5,10,8.7,19.2,16.2,26.9
		C-51.4,25-46.1,30-39.4,33c6,2.7,12.2,4.7,18.7,5.7C-14,39.8-7.4,39.7,0.5,38.4z"/>
	<path fill="#576F36" d="M4,53c-8-3-16.3-4.5-24.9-4.3c-3.6,0.1-7.1,1.2-10.6,2.1c-8,2-14.9,6.2-22.2,9.7
		C-60.8,63.8-68,67-74.8,71.1c-8,4.8-15.2,10.7-22,17c-2.6,2.4-4.8,5.4-6.1,8.8c-0.5,1.3-1.5,2.3-2.4,3.5c-1.2,1.6-0.9,2.7,1.1,3.2
		c1.9,0.5,3.9,0.5,5.9,0.3c8.5-1.2,16.8-3.2,24.9-5.8c13.4-4.3,26.2-9.9,38.3-16.9c8.1-4.7,16.1-9.7,23.9-15.1
		c4.3-3,8.4-6.6,13.3-8.7C3.1,56,3.7,54.5,4,53z"/>
	<path fill="#576F36" d="M63.4,92.3c-1-9.4-6-16.7-12.3-23.4c-5.4-5.8-11.7-10.5-18.5-14.7c-3.9-2.4-7.6-5.1-11.9-6.7
		c-2.3-0.8-3.5-0.1-3.7,2.3c-0.8,8,1.6,15.2,6.2,21.6c5.5,7.6,12.2,14.1,20,19.4c3.9,2.7,7.8,5.2,12.3,6.8c1.8,0.7,3.7,1.1,5.6,1.3
		c2,0.2,3-0.9,2.8-2.9C63.8,94.8,63.6,93.6,63.4,92.3z"/>
	<path fill="#E56C25" d="M4,53c-0.3,1.6-0.9,3-1.8,4.4C-0.2,63.8-3,70.1-6,76.4c-2.1,4.5-4.6,8.7-7,13c-0.7,1.3-2,2.2-2.6,3.6
		c-0.3,0.7-0.6,1.4,0,2.1c0.6,0.7,1.3,0.3,2-0.1c4.9-3,9-6.7,12.5-11.3c4.3-5.9,7.3-12.3,9.8-19.2c1.8-5,3-10.2,4.5-15.3
		c0.5-1.7-0.4-2.8-1.4-3.7c-1.1-1-2.5-1.9-4.2-1.6c-0.7,0.1-0.8,0.9-1.1,1.5C5.6,47.9,5.3,50.6,4,53z"/>
	<path fill="#FCE9ED" d="M4.4-73.6C4-61.4,3.1-49.2,2.8-37C2.4-24.6,1.6-12.2,1,0.1c0,0.5,0,1,0,1.5C1.2,5,1.4,5.2,4.6,4
		C6,3.4,7.3,2.5,8.7,1.8c7.5-3.8,15-7.4,22.5-11.3c6.3-3.3,12.6-6.7,18.8-10.2s12.6-6.7,19.2-9.4c2-0.8,4-1.9,5.8-3.1
		c1.5-1,1.3-2.4-0.2-3.1c-6.6-3.2-12.9-7.1-19.2-10.9c-10.1-6.2-19.6-13.4-29-20.6C20.3-71.6,14-76.2,7.1-80.1
		c-1.7-1-2.4-0.6-2.5,1.3C4.4-77,4.5-75.3,4.4-73.6z"/>
</symbol>
<ellipse fill="#D3E2E1" cx="80.8" cy="196.5" rx="80.8" ry="22.7"/>
<use xlink:href="#New_Symbol"  width="212" height="208.1" id="XMLID_1_" x="-106" y="-104" transform="matrix(0.9995 0 0 -0.9995 114.8074 104)" overflow="visible"/>
</svg>
